<?xml version="1.0" standalone="no"?>
<!DOCTYPE svg PUBLIC "-//W3C//DTD SVG 20010904//EN"
 "http://www.w3.org/TR/2001/REC-SVG-20010904/DTD/svg10.dtd">
<svg version="1.0" xmlns="http://www.w3.org/2000/svg"
 width="300.000000pt" height="300.000000pt" viewBox="0 0 300.000000 300.000000"
 preserveAspectRatio="xMidYMid meet">
<metadata>
Created by potrace 1.14, written by Peter Selinger 2001-2017
</metadata>
<g transform="translate(0.000000,300.000000) scale(0.100000,-0.100000)"
fill="#000000" stroke="none">
<path d="M81 2253 c-5 -10 -12 -61 -16 -113 -3 -52 -8 -117 -10 -145 -9 -117
-16 -204 -20 -270 -3 -38 -7 -106 -10 -150 -4 -44 -8 -105 -10 -135 -2 -30 -7
-92 -10 -136 -9 -115 -15 -112 194 -110 94 0 171 0 171 -1 0 -1 -10 -11 -22
-23 -12 -11 -18 -20 -14 -20 5 0 2 -10 -6 -22 -16 -25 -18 -84 -4 -107 5 -8 4
-16 -4 -21 -8 -5 -5 -9 10 -13 17 -4 21 -11 16 -24 -4 -9 -4 -14 0 -11 4 4 27
-5 51 -19 40 -23 56 -26 144 -27 76 -1 102 -5 109 -16 5 -8 6 -18 3 -24 -3 -5
-1 -6 5 -2 9 5 9 13 2 27 -7 13 -7 19 0 19 5 0 10 -5 10 -11 0 -8 4 -8 13 -2
15 13 47 13 47 1 0 -5 6 -6 12 -1 7 4 43 8 81 9 64 2 73 -2 68 -29 -1 -5 3 -6
8 -2 6 3 8 12 4 21 -6 16 17 16 29 -1 5 -6 8 -5 8 3 0 6 5 12 11 12 5 0 7 -6
3 -12 -6 -10 -4 -10 7 0 7 6 17 12 22 12 4 0 5 -6 1 -12 -5 -9 -2 -9 9 1 14
11 17 11 17 0 0 -12 2 -12 9 -1 4 8 14 12 22 11 8 -1 25 2 39 8 14 6 28 11 32
12 4 1 19 13 33 27 14 14 29 23 34 20 5 -3 11 1 15 9 3 8 0 17 -6 21 -6 4 -8
3 -5 -3 4 -6 0 -13 -8 -17 -17 -6 -19 2 -6 23 5 8 18 12 29 9 15 -4 19 -2 15
8 -3 8 -9 11 -14 8 -5 -3 -9 -2 -10 3 -1 4 -2 19 -4 33 -3 35 -35 110 -46 110
-5 0 -9 3 -9 8 0 4 67 7 150 7 82 0 150 -2 150 -5 0 -3 11 -5 24 -5 13 0 22 3
20 6 -2 4 3 10 12 13 16 6 16 43 -1 241 -5 57 -13 163 -20 280 -3 44 -8 109
-10 145 -3 36 -7 97 -10 135 -14 195 -17 231 -26 247 -9 17 -48 18 -669 18
-618 0 -660 -1 -669 -17z"/>
<path d="M226 1158 c3 -5 10 -6 15 -3 13 9 11 12 -6 12 -8 0 -12 -4 -9 -9z"/>
<path d="M1193 1111 c0 -11 5 -18 9 -15 4 3 5 11 1 19 -7 21 -12 19 -10 -4z"/>
<path d="M1337 1115 c-4 -8 -3 -16 1 -19 4 -3 9 4 9 15 2 23 -3 25 -10 4z"/>
<path d="M1373 1111 c0 -11 5 -18 9 -15 4 3 5 11 1 19 -7 21 -12 19 -10 -4z"/>
<path d="M1290 1099 c0 -5 5 -7 10 -4 6 3 10 8 10 11 0 2 -4 4 -10 4 -5 0 -10
-5 -10 -11z"/>
<path d="M1275 1070 c-4 -6 -11 -7 -17 -4 -7 4 -8 2 -4 -5 6 -9 11 -9 22 0 14
11 18 19 10 19 -3 0 -8 -5 -11 -10z"/>
<path d="M235 1059 c-3 -4 2 -6 10 -5 21 3 28 13 10 13 -9 0 -18 -4 -20 -8z"/>
<path d="M299 1068 c0 -2 -2 -19 -4 -40 -2 -29 0 -34 10 -25 7 7 10 17 5 22
-4 6 -6 18 -5 28 3 13 -2 25 -6 15z"/>
<path d="M1333 1049 c-2 -23 3 -25 10 -4 4 8 3 16 -1 19 -4 3 -9 -4 -9 -15z"/>
<path d="M155 1001 c-3 -5 -2 -12 3 -15 5 -3 9 1 9 9 0 17 -3 19 -12 6z"/>
<path d="M600 886 c7 -7 13 -7 20 0 6 6 3 10 -10 10 -13 0 -16 -4 -10 -10z"/>
<path d="M753 885 c0 -8 4 -12 9 -9 5 3 6 10 3 15 -9 13 -12 11 -12 -6z"/>
<path d="M796 883 c-6 -14 -5 -15 5 -6 7 7 10 15 7 18 -3 3 -9 -2 -12 -12z"/>
<path d="M830 885 c0 -8 2 -15 4 -15 2 0 6 7 10 15 3 8 1 15 -4 15 -6 0 -10
-7 -10 -15z"/>
<path d="M713 875 c0 -8 4 -12 9 -9 5 3 6 10 3 15 -9 13 -12 11 -12 -6z"/>
</g>
</svg>
